ISO-10303-21;
HEADER;
/* Generated by software containing ST-Developer
 * from STEP Tools, Inc. (www.steptools.com) 
 */
/* OPTION: using custom renumber hook */

FILE_DESCRIPTION(
/* description */ ('STEP AP242 Edition 2',
'CAx-IF Rec.Pracs.---Representation and Presentation of Product Manufa
cturing Information (PMI)---4.0---2014-10-13',
'CAx-IF Rec.Pracs.---3D Tessellated Geometry---0.4---2014-09-14','2;1',
'CAx-IF Rec.Pracs.---User Defined Attributes---1.5---2016-08-15'),
/* implementation_level */ '2;1');

FILE_NAME(
/* name */ 'Part Studio 1',
/* time_stamp */ '2026-09-28T13:31:09Z',
/* author */ (''),
/* organization */ (''),
/* preprocessor_version */ 'ST-DEVELOPER v20',
/* originating_system */ 'ONSHAPE BY PTC INC, 1.221',
/* authorisation */ '  ');

FILE_SCHEMA (('AP242_MANAGED_MODEL_BASED_3D_ENGINEERING_MIM_LF { 1 0 10303 442 3 1 4 }'));
ENDSEC;

DATA;
#10=SHAPE_REPRESENTATION_RELATIONSHIP('','',#402,#11);
#11=ADVANCED_BREP_SHAPE_REPRESENTATION('',(#400),#640);
#12=CYLINDRICAL_SURFACE('',#413,0.000762);
#13=CYLINDRICAL_SURFACE('',#414,0.000762);
#14=ELLIPSE('',#410,0.000795212549704911,0.000762);
#15=CIRCLE('',#406,0.000762);
#16=CIRCLE('',#408,0.000762);
#17=CIRCLE('',#412,0.000762);
#18=ORIENTED_EDGE('',*,*,#120,.F.);
#19=ORIENTED_EDGE('',*,*,#121,.F.);
#20=ORIENTED_EDGE('',*,*,#122,.T.);
#21=ORIENTED_EDGE('',*,*,#123,.T.);
#22=ORIENTED_EDGE('',*,*,#124,.F.);
#23=ORIENTED_EDGE('',*,*,#125,.F.);
#24=ORIENTED_EDGE('',*,*,#126,.T.);
#25=ORIENTED_EDGE('',*,*,#127,.T.);
#26=ORIENTED_EDGE('',*,*,#128,.F.);
#27=ORIENTED_EDGE('',*,*,#129,.T.);
#28=ORIENTED_EDGE('',*,*,#130,.T.);
#29=ORIENTED_EDGE('',*,*,#131,.T.);
#30=ORIENTED_EDGE('',*,*,#132,.T.);
#31=ORIENTED_EDGE('',*,*,#133,.T.);
#32=ORIENTED_EDGE('',*,*,#134,.T.);
#33=ORIENTED_EDGE('',*,*,#135,.T.);
#34=ORIENTED_EDGE('',*,*,#136,.F.);
#35=ORIENTED_EDGE('',*,*,#137,.T.);
#36=ORIENTED_EDGE('',*,*,#138,.F.);
#37=ORIENTED_EDGE('',*,*,#131,.F.);
#38=ORIENTED_EDGE('',*,*,#134,.F.);
#39=ORIENTED_EDGE('',*,*,#139,.T.);
#40=ORIENTED_EDGE('',*,*,#136,.T.);
#41=ORIENTED_EDGE('',*,*,#130,.F.);
#42=ORIENTED_EDGE('',*,*,#140,.T.);
#43=ORIENTED_EDGE('',*,*,#141,.T.);
#44=ORIENTED_EDGE('',*,*,#142,.T.);
#45=ORIENTED_EDGE('',*,*,#143,.F.);
#46=ORIENTED_EDGE('',*,*,#144,.F.);
#47=ORIENTED_EDGE('',*,*,#138,.T.);
#48=ORIENTED_EDGE('',*,*,#145,.T.);
#49=ORIENTED_EDGE('',*,*,#132,.F.);
#50=ORIENTED_EDGE('',*,*,#146,.T.);
#51=ORIENTED_EDGE('',*,*,#128,.T.);
#52=ORIENTED_EDGE('',*,*,#133,.F.);
#53=ORIENTED_EDGE('',*,*,#145,.F.);
#54=ORIENTED_EDGE('',*,*,#137,.F.);
#55=ORIENTED_EDGE('',*,*,#139,.F.);
#56=ORIENTED_EDGE('',*,*,#140,.F.);
#57=ORIENTED_EDGE('',*,*,#129,.F.);
#58=ORIENTED_EDGE('',*,*,#146,.F.);
#59=ORIENTED_EDGE('',*,*,#135,.F.);
#60=ORIENTED_EDGE('',*,*,#125,.T.);
#61=ORIENTED_EDGE('',*,*,#147,.F.);
#62=ORIENTED_EDGE('',*,*,#148,.F.);
#63=ORIENTED_EDGE('',*,*,#149,.T.);
#64=ORIENTED_EDGE('',*,*,#126,.F.);
#65=ORIENTED_EDGE('',*,*,#149,.F.);
#66=ORIENTED_EDGE('',*,*,#150,.T.);
#67=ORIENTED_EDGE('',*,*,#151,.T.);
#68=ORIENTED_EDGE('',*,*,#127,.F.);
#69=ORIENTED_EDGE('',*,*,#151,.F.);
#70=ORIENTED_EDGE('',*,*,#152,.T.);
#71=ORIENTED_EDGE('',*,*,#153,.T.);
#72=ORIENTED_EDGE('',*,*,#124,.T.);
#73=ORIENTED_EDGE('',*,*,#153,.F.);
#74=ORIENTED_EDGE('',*,*,#154,.F.);
#75=ORIENTED_EDGE('',*,*,#147,.T.);
#76=ORIENTED_EDGE('',*,*,#148,.T.);
#77=ORIENTED_EDGE('',*,*,#154,.T.);
#78=ORIENTED_EDGE('',*,*,#152,.F.);
#79=ORIENTED_EDGE('',*,*,#150,.F.);
#80=ORIENTED_EDGE('',*,*,#121,.T.);
#81=ORIENTED_EDGE('',*,*,#155,.F.);
#82=ORIENTED_EDGE('',*,*,#156,.F.);
#83=ORIENTED_EDGE('',*,*,#157,.T.);
#84=ORIENTED_EDGE('',*,*,#122,.F.);
#85=ORIENTED_EDGE('',*,*,#157,.F.);
#86=ORIENTED_EDGE('',*,*,#158,.T.);
#87=ORIENTED_EDGE('',*,*,#159,.T.);
#88=ORIENTED_EDGE('',*,*,#123,.F.);
#89=ORIENTED_EDGE('',*,*,#159,.F.);
#90=ORIENTED_EDGE('',*,*,#160,.T.);
#91=ORIENTED_EDGE('',*,*,#161,.T.);
#92=ORIENTED_EDGE('',*,*,#120,.T.);
#93=ORIENTED_EDGE('',*,*,#161,.F.);
#94=ORIENTED_EDGE('',*,*,#162,.F.);
#95=ORIENTED_EDGE('',*,*,#155,.T.);
#96=ORIENTED_EDGE('',*,*,#156,.T.);
#97=ORIENTED_EDGE('',*,*,#162,.T.);
#98=ORIENTED_EDGE('',*,*,#160,.F.);
#99=ORIENTED_EDGE('',*,*,#158,.F.);
#100=ORIENTED_EDGE('',*,*,#163,.F.);
#101=ORIENTED_EDGE('',*,*,#164,.F.);
#102=ORIENTED_EDGE('',*,*,#165,.T.);
#103=ORIENTED_EDGE('',*,*,#142,.F.);
#104=ORIENTED_EDGE('',*,*,#143,.T.);
#105=ORIENTED_EDGE('',*,*,#165,.F.);
#106=ORIENTED_EDGE('',*,*,#166,.T.);
#107=ORIENTED_EDGE('',*,*,#167,.T.);
#108=ORIENTED_EDGE('',*,*,#144,.T.);
#109=ORIENTED_EDGE('',*,*,#167,.F.);
#110=ORIENTED_EDGE('',*,*,#168,.T.);
#111=ORIENTED_EDGE('',*,*,#169,.T.);
#112=ORIENTED_EDGE('',*,*,#169,.F.);
#113=ORIENTED_EDGE('',*,*,#170,.F.);
#114=ORIENTED_EDGE('',*,*,#163,.T.);
#115=ORIENTED_EDGE('',*,*,#141,.F.);
#116=ORIENTED_EDGE('',*,*,#164,.T.);
#117=ORIENTED_EDGE('',*,*,#170,.T.);
#118=ORIENTED_EDGE('',*,*,#168,.F.);
#119=ORIENTED_EDGE('',*,*,#166,.F.);
#120=EDGE_CURVE('',#171,#172,#205,.T.);
#121=EDGE_CURVE('',#173,#171,#206,.T.);
#122=EDGE_CURVE('',#173,#174,#207,.T.);
#123=EDGE_CURVE('',#174,#172,#208,.T.);
#124=EDGE_CURVE('',#175,#176,#209,.T.);
#125=EDGE_CURVE('',#177,#175,#210,.T.);
#126=EDGE_CURVE('',#177,#178,#211,.T.);
#127=EDGE_CURVE('',#178,#176,#212,.T.);
#128=EDGE_CURVE('',#179,#180,#213,.T.);
#129=EDGE_CURVE('',#179,#181,#214,.F.);
#130=EDGE_CURVE('',#181,#182,#215,.T.);
#131=EDGE_CURVE('',#182,#180,#216,.T.);
#132=EDGE_CURVE('',#183,#184,#217,.T.);
#133=EDGE_CURVE('',#184,#185,#15,.T.);
#134=EDGE_CURVE('',#185,#186,#218,.T.);
#135=EDGE_CURVE('',#186,#183,#219,.T.);
#136=EDGE_CURVE('',#187,#182,#220,.T.);
#137=EDGE_CURVE('',#187,#188,#16,.F.);
#138=EDGE_CURVE('',#180,#188,#221,.T.);
#139=EDGE_CURVE('',#185,#187,#222,.T.);
#140=EDGE_CURVE('',#181,#186,#14,.F.);
#141=EDGE_CURVE('',#189,#190,#223,.T.);
#142=EDGE_CURVE('',#190,#191,#224,.T.);
#143=EDGE_CURVE('',#192,#191,#225,.T.);
#144=EDGE_CURVE('',#189,#192,#226,.T.);
#145=EDGE_CURVE('',#188,#184,#227,.F.);
#146=EDGE_CURVE('',#183,#179,#17,.F.);
#147=EDGE_CURVE('',#193,#175,#228,.T.);
#148=EDGE_CURVE('',#194,#193,#229,.T.);
#149=EDGE_CURVE('',#194,#177,#230,.T.);
#150=EDGE_CURVE('',#194,#195,#231,.T.);
#151=EDGE_CURVE('',#195,#178,#232,.T.);
#152=EDGE_CURVE('',#195,#196,#233,.T.);
#153=EDGE_CURVE('',#196,#176,#234,.T.);
#154=EDGE_CURVE('',#193,#196,#235,.T.);
#155=EDGE_CURVE('',#197,#171,#236,.T.);
#156=EDGE_CURVE('',#198,#197,#237,.T.);
#157=EDGE_CURVE('',#198,#173,#238,.T.);
#158=EDGE_CURVE('',#198,#199,#239,.T.);
#159=EDGE_CURVE('',#199,#174,#240,.T.);
#160=EDGE_CURVE('',#199,#200,#241,.T.);
#161=EDGE_CURVE('',#200,#172,#242,.T.);
#162=EDGE_CURVE('',#197,#200,#243,.T.);
#163=EDGE_CURVE('',#201,#190,#244,.T.);
#164=EDGE_CURVE('',#202,#201,#245,.T.);
#165=EDGE_CURVE('',#202,#191,#246,.T.);
#166=EDGE_CURVE('',#202,#203,#247,.T.);
#167=EDGE_CURVE('',#203,#192,#248,.T.);
#168=EDGE_CURVE('',#203,#204,#249,.T.);
#169=EDGE_CURVE('',#204,#189,#250,.T.);
#170=EDGE_CURVE('',#201,#204,#251,.T.);
#171=VERTEX_POINT('',#534);
#172=VERTEX_POINT('',#535);
#173=VERTEX_POINT('',#537);
#174=VERTEX_POINT('',#539);
#175=VERTEX_POINT('',#542);
#176=VERTEX_POINT('',#543);
#177=VERTEX_POINT('',#545);
#178=VERTEX_POINT('',#547);
#179=VERTEX_POINT('',#550);
#180=VERTEX_POINT('',#551);
#181=VERTEX_POINT('',#553);
#182=VERTEX_POINT('',#555);
#183=VERTEX_POINT('',#559);
#184=VERTEX_POINT('',#560);
#185=VERTEX_POINT('',#562);
#186=VERTEX_POINT('',#564);
#187=VERTEX_POINT('',#568);
#188=VERTEX_POINT('',#570);
#189=VERTEX_POINT('',#577);
#190=VERTEX_POINT('',#578);
#191=VERTEX_POINT('',#580);
#192=VERTEX_POINT('',#582);
#193=VERTEX_POINT('',#590);
#194=VERTEX_POINT('',#592);
#195=VERTEX_POINT('',#596);
#196=VERTEX_POINT('',#600);
#197=VERTEX_POINT('',#607);
#198=VERTEX_POINT('',#609);
#199=VERTEX_POINT('',#613);
#200=VERTEX_POINT('',#617);
#201=VERTEX_POINT('',#624);
#202=VERTEX_POINT('',#626);
#203=VERTEX_POINT('',#630);
#204=VERTEX_POINT('',#634);
#205=LINE('',#533,#252);
#206=LINE('',#536,#253);
#207=LINE('',#538,#254);
#208=LINE('',#540,#255);
#209=LINE('',#541,#256);
#210=LINE('',#544,#257);
#211=LINE('',#546,#258);
#212=LINE('',#548,#259);
#213=LINE('',#549,#260);
#214=LINE('',#552,#261);
#215=LINE('',#554,#262);
#216=LINE('',#556,#263);
#217=LINE('',#558,#264);
#218=LINE('',#563,#265);
#219=LINE('',#565,#266);
#220=LINE('',#567,#267);
#221=LINE('',#571,#268);
#222=LINE('',#573,#269);
#223=LINE('',#576,#270);
#224=LINE('',#579,#271);
#225=LINE('',#581,#272);
#226=LINE('',#583,#273);
#227=LINE('',#584,#274);
#228=LINE('',#589,#275);
#229=LINE('',#591,#276);
#230=LINE('',#593,#277);
#231=LINE('',#595,#278);
#232=LINE('',#597,#279);
#233=LINE('',#599,#280);
#234=LINE('',#601,#281);
#235=LINE('',#603,#282);
#236=LINE('',#606,#283);
#237=LINE('',#608,#284);
#238=LINE('',#610,#285);
#239=LINE('',#612,#286);
#240=LINE('',#614,#287);
#241=LINE('',#616,#288);
#242=LINE('',#618,#289);
#243=LINE('',#620,#290);
#244=LINE('',#623,#291);
#245=LINE('',#625,#292);
#246=LINE('',#627,#293);
#247=LINE('',#629,#294);
#248=LINE('',#631,#295);
#249=LINE('',#633,#296);
#250=LINE('',#635,#297);
#251=LINE('',#637,#298);
#252=VECTOR('',#434,1.);
#253=VECTOR('',#435,1.);
#254=VECTOR('',#436,1.);
#255=VECTOR('',#437,1.);
#256=VECTOR('',#438,1.);
#257=VECTOR('',#439,1.);
#258=VECTOR('',#440,1.);
#259=VECTOR('',#441,1.);
#260=VECTOR('',#442,1.);
#261=VECTOR('',#443,1.);
#262=VECTOR('',#444,1.);
#263=VECTOR('',#445,1.);
#264=VECTOR('',#448,1.);
#265=VECTOR('',#451,1.);
#266=VECTOR('',#452,1.);
#267=VECTOR('',#455,1.);
#268=VECTOR('',#458,1.);
#269=VECTOR('',#461,1.);
#270=VECTOR('',#466,1.);
#271=VECTOR('',#467,1.);
#272=VECTOR('',#468,1.);
#273=VECTOR('',#469,1.);
#274=VECTOR('',#470,1.);
#275=VECTOR('',#479,1.);
#276=VECTOR('',#480,1.);
#277=VECTOR('',#481,1.);
#278=VECTOR('',#484,1.);
#279=VECTOR('',#485,1.);
#280=VECTOR('',#488,1.);
#281=VECTOR('',#489,1.);
#282=VECTOR('',#492,1.);
#283=VECTOR('',#497,1.);
#284=VECTOR('',#498,1.);
#285=VECTOR('',#499,1.);
#286=VECTOR('',#502,1.);
#287=VECTOR('',#503,1.);
#288=VECTOR('',#506,1.);
#289=VECTOR('',#507,1.);
#290=VECTOR('',#510,1.);
#291=VECTOR('',#515,1.);
#292=VECTOR('',#516,1.);
#293=VECTOR('',#517,1.);
#294=VECTOR('',#520,1.);
#295=VECTOR('',#521,1.);
#296=VECTOR('',#524,1.);
#297=VECTOR('',#525,1.);
#298=VECTOR('',#528,1.);
#299=EDGE_LOOP('',(#18,#19,#20,#21));
#300=EDGE_LOOP('',(#22,#23,#24,#25));
#301=EDGE_LOOP('',(#26,#27,#28,#29));
#302=EDGE_LOOP('',(#30,#31,#32,#33));
#303=EDGE_LOOP('',(#34,#35,#36,#37));
#304=EDGE_LOOP('',(#38,#39,#40,#41,#42));
#305=EDGE_LOOP('',(#43,#44,#45,#46));
#306=EDGE_LOOP('',(#47,#48,#49,#50,#51));
#307=EDGE_LOOP('',(#52,#53,#54,#55));
#308=EDGE_LOOP('',(#56,#57,#58,#59));
#309=EDGE_LOOP('',(#60,#61,#62,#63));
#310=EDGE_LOOP('',(#64,#65,#66,#67));
#311=EDGE_LOOP('',(#68,#69,#70,#71));
#312=EDGE_LOOP('',(#72,#73,#74,#75));
#313=EDGE_LOOP('',(#76,#77,#78,#79));
#314=EDGE_LOOP('',(#80,#81,#82,#83));
#315=EDGE_LOOP('',(#84,#85,#86,#87));
#316=EDGE_LOOP('',(#88,#89,#90,#91));
#317=EDGE_LOOP('',(#92,#93,#94,#95));
#318=EDGE_LOOP('',(#96,#97,#98,#99));
#319=EDGE_LOOP('',(#100,#101,#102,#103));
#320=EDGE_LOOP('',(#104,#105,#106,#107));
#321=EDGE_LOOP('',(#108,#109,#110,#111));
#322=EDGE_LOOP('',(#112,#113,#114,#115));
#323=EDGE_LOOP('',(#116,#117,#118,#119));
#324=FACE_BOUND('',#299,.T.);
#325=FACE_BOUND('',#300,.T.);
#326=FACE_BOUND('',#301,.T.);
#327=FACE_BOUND('',#302,.T.);
#328=FACE_BOUND('',#303,.T.);
#329=FACE_BOUND('',#304,.T.);
#330=FACE_BOUND('',#305,.T.);
#331=FACE_BOUND('',#306,.T.);
#332=FACE_BOUND('',#307,.T.);
#333=FACE_BOUND('',#308,.T.);
#334=FACE_BOUND('',#309,.T.);
#335=FACE_BOUND('',#310,.T.);
#336=FACE_BOUND('',#311,.T.);
#337=FACE_BOUND('',#312,.T.);
#338=FACE_BOUND('',#313,.T.);
#339=FACE_BOUND('',#314,.T.);
#340=FACE_BOUND('',#315,.T.);
#341=FACE_BOUND('',#316,.T.);
#342=FACE_BOUND('',#317,.T.);
#343=FACE_BOUND('',#318,.T.);
#344=FACE_BOUND('',#319,.T.);
#345=FACE_BOUND('',#320,.T.);
#346=FACE_BOUND('',#321,.T.);
#347=FACE_BOUND('',#322,.T.);
#348=FACE_BOUND('',#323,.T.);
#349=PLANE('',#404);
#350=PLANE('',#405);
#351=PLANE('',#407);
#352=PLANE('',#409);
#353=PLANE('',#411);
#354=PLANE('',#415);
#355=PLANE('',#416);
#356=PLANE('',#417);
#357=PLANE('',#418);
#358=PLANE('',#419);
#359=PLANE('',#420);
#360=PLANE('',#421);
#361=PLANE('',#422);
#362=PLANE('',#423);
#363=PLANE('',#424);
#364=PLANE('',#425);
#365=PLANE('',#426);
#366=PLANE('',#427);
#367=PLANE('',#428);
#368=PLANE('',#429);
#369=ADVANCED_FACE('',(#324,#325,#326),#349,.F.);
#370=ADVANCED_FACE('',(#327),#350,.T.);
#371=ADVANCED_FACE('',(#328),#351,.F.);
#372=ADVANCED_FACE('',(#329),#352,.F.);
#373=ADVANCED_FACE('',(#330,#331),#353,.F.);
#374=ADVANCED_FACE('',(#332),#12,.T.);
#375=ADVANCED_FACE('',(#333),#13,.T.);
#376=ADVANCED_FACE('',(#334),#354,.F.);
#377=ADVANCED_FACE('',(#335),#355,.T.);
#378=ADVANCED_FACE('',(#336),#356,.T.);
#379=ADVANCED_FACE('',(#337),#357,.F.);
#380=ADVANCED_FACE('',(#338),#358,.F.);
#381=ADVANCED_FACE('',(#339),#359,.F.);
#382=ADVANCED_FACE('',(#340),#360,.T.);
#383=ADVANCED_FACE('',(#341),#361,.T.);
#384=ADVANCED_FACE('',(#342),#362,.F.);
#385=ADVANCED_FACE('',(#343),#363,.F.);
#386=ADVANCED_FACE('',(#344),#364,.F.);
#387=ADVANCED_FACE('',(#345),#365,.T.);
#388=ADVANCED_FACE('',(#346),#366,.T.);
#389=ADVANCED_FACE('',(#347),#367,.F.);
#390=ADVANCED_FACE('',(#348),#368,.F.);
#391=CLOSED_SHELL('',(#369,#370,#371,#372,#373,#374,#375,#376,#377,#378,
#379,#380,#381,#382,#383,#384,#385,#386,#387,#388,#389,#390));
#392=STYLED_ITEM('',(#393),#400);
#393=PRESENTATION_STYLE_ASSIGNMENT((#394));
#394=SURFACE_STYLE_USAGE(.BOTH.,#395);
#395=SURFACE_SIDE_STYLE('',(#396));
#396=SURFACE_STYLE_FILL_AREA(#397);
#397=FILL_AREA_STYLE('',(#398));
#398=FILL_AREA_STYLE_COLOUR('',#399);
#399=COLOUR_RGB('',0.615686274509804,0.811764705882353,0.929411764705882);
#400=MANIFOLD_SOLID_BREP('Part 1',#391);
#401=SHAPE_DEFINITION_REPRESENTATION(#645,#402);
#402=SHAPE_REPRESENTATION('Part 1',(#403),#640);
#403=AXIS2_PLACEMENT_3D('',#531,#430,#431);
#404=AXIS2_PLACEMENT_3D('',#532,#432,#433);
#405=AXIS2_PLACEMENT_3D('',#557,#446,#447);
#406=AXIS2_PLACEMENT_3D('',#561,#449,#450);
#407=AXIS2_PLACEMENT_3D('',#566,#453,#454);
#408=AXIS2_PLACEMENT_3D('',#569,#456,#457);
#409=AXIS2_PLACEMENT_3D('',#572,#459,#460);
#410=AXIS2_PLACEMENT_3D('',#574,#462,#463);
#411=AXIS2_PLACEMENT_3D('',#575,#464,#465);
#412=AXIS2_PLACEMENT_3D('',#585,#471,#472);
#413=AXIS2_PLACEMENT_3D('',#586,#473,#474);
#414=AXIS2_PLACEMENT_3D('',#587,#475,#476);
#415=AXIS2_PLACEMENT_3D('',#588,#477,#478);
#416=AXIS2_PLACEMENT_3D('',#594,#482,#483);
#417=AXIS2_PLACEMENT_3D('',#598,#486,#487);
#418=AXIS2_PLACEMENT_3D('',#602,#490,#491);
#419=AXIS2_PLACEMENT_3D('',#604,#493,#494);
#420=AXIS2_PLACEMENT_3D('',#605,#495,#496);
#421=AXIS2_PLACEMENT_3D('',#611,#500,#501);
#422=AXIS2_PLACEMENT_3D('',#615,#504,#505);
#423=AXIS2_PLACEMENT_3D('',#619,#508,#509);
#424=AXIS2_PLACEMENT_3D('',#621,#511,#512);
#425=AXIS2_PLACEMENT_3D('',#622,#513,#514);
#426=AXIS2_PLACEMENT_3D('',#628,#518,#519);
#427=AXIS2_PLACEMENT_3D('',#632,#522,#523);
#428=AXIS2_PLACEMENT_3D('',#636,#526,#527);
#429=AXIS2_PLACEMENT_3D('',#638,#529,#530);
#430=DIRECTION('',(0.,0.,1.));
#431=DIRECTION('',(1.,0.,0.));
#432=DIRECTION('',(1.,0.,0.));
#433=DIRECTION('',(0.,0.,-1.));
#434=DIRECTION('',(0.,0.,-1.));
#435=DIRECTION('',(0.,1.,0.));
#436=DIRECTION('',(0.,0.,-1.));
#437=DIRECTION('',(0.,1.,0.));
#438=DIRECTION('',(0.,-1.,0.));
#439=DIRECTION('',(0.,0.,-1.));
#440=DIRECTION('',(0.,-1.,0.));
#441=DIRECTION('',(0.,0.,-1.));
#442=DIRECTION('',(0.,1.,0.));
#443=DIRECTION('',(0.,0.,-1.));
#444=DIRECTION('',(0.,1.,0.));
#445=DIRECTION('',(0.,0.,-1.));
#446=DIRECTION('',(0.,-1.,0.));
#447=DIRECTION('',(1.,0.,0.));
#448=DIRECTION('',(1.,0.,0.));
#449=DIRECTION('',(0.,-1.,0.));
#450=DIRECTION('',(0.,0.,-1.));
#451=DIRECTION('',(-0.958234374297494,0.,0.28598406234385));
#452=DIRECTION('',(0.,0.,-1.));
#453=DIRECTION('',(0.,-1.,0.));
#454=DIRECTION('',(1.,0.,0.));
#455=DIRECTION('',(-0.958234374297494,0.,0.28598406234385));
#456=DIRECTION('',(0.,-1.,0.));
#457=DIRECTION('',(0.,0.,-1.));
#458=DIRECTION('',(1.,0.,0.));
#459=DIRECTION('',(-0.28598406234385,0.,-0.958234374297494));
#460=DIRECTION('',(-0.958234374297494,0.,0.28598406234385));
#461=DIRECTION('',(0.,1.,0.));
#462=DIRECTION('',(-0.28598406234385,0.,-0.958234374297494));
#463=DIRECTION('',(-0.958234374297494,0.,0.28598406234385));
#464=DIRECTION('',(0.,0.,1.));
#465=DIRECTION('',(1.,0.,0.));
#466=DIRECTION('',(-1.,0.,0.));
#467=DIRECTION('',(0.,-1.,0.));
#468=DIRECTION('',(-1.,0.,0.));
#469=DIRECTION('',(0.,-1.,0.));
#470=DIRECTION('',(0.,1.,0.));
#471=DIRECTION('',(0.,0.,1.));
#472=DIRECTION('',(1.,0.,0.));
#473=DIRECTION('',(0.,1.,0.));
#474=DIRECTION('',(0.,0.,1.));
#475=DIRECTION('',(0.,0.,1.));
#476=DIRECTION('',(1.,0.,0.));
#477=DIRECTION('',(0.,1.,0.));
#478=DIRECTION('',(0.,0.,1.));
#479=DIRECTION('',(-1.,0.,0.));
#480=DIRECTION('',(0.,0.,-1.));
#481=DIRECTION('',(-1.,0.,0.));
#482=DIRECTION('',(0.,0.,-1.));
#483=DIRECTION('',(-1.,0.,0.));
#484=DIRECTION('',(0.,-1.,0.));
#485=DIRECTION('',(-1.,0.,0.));
#486=DIRECTION('',(0.,1.,0.));
#487=DIRECTION('',(0.,0.,1.));
#488=DIRECTION('',(0.,0.,-1.));
#489=DIRECTION('',(-1.,0.,0.));
#490=DIRECTION('',(0.,0.,-1.));
#491=DIRECTION('',(-1.,0.,0.));
#492=DIRECTION('',(0.,-1.,0.));
#493=DIRECTION('',(1.,0.,0.));
#494=DIRECTION('',(0.,1.,0.));
#495=DIRECTION('',(0.,0.,1.));
#496=DIRECTION('',(1.,0.,0.));
#497=DIRECTION('',(-1.,0.,0.));
#498=DIRECTION('',(0.,1.,0.));
#499=DIRECTION('',(-1.,0.,0.));
#500=DIRECTION('',(0.,1.,0.));
#501=DIRECTION('',(0.,0.,1.));
#502=DIRECTION('',(0.,0.,-1.));
#503=DIRECTION('',(-1.,0.,0.));
#504=DIRECTION('',(0.,0.,1.));
#505=DIRECTION('',(1.,0.,0.));
#506=DIRECTION('',(0.,1.,0.));
#507=DIRECTION('',(-1.,0.,0.));
#508=DIRECTION('',(0.,1.,0.));
#509=DIRECTION('',(0.,0.,1.));
#510=DIRECTION('',(0.,0.,-1.));
#511=DIRECTION('',(1.,0.,0.));
#512=DIRECTION('',(0.,1.,0.));
#513=DIRECTION('',(-1.,0.,0.));
#514=DIRECTION('',(0.,0.,1.));
#515=DIRECTION('',(0.,0.,-1.));
#516=DIRECTION('',(0.,1.,0.));
#517=DIRECTION('',(0.,0.,-1.));
#518=DIRECTION('',(0.,1.,0.));
#519=DIRECTION('',(0.,0.,1.));
#520=DIRECTION('',(1.,0.,0.));
#521=DIRECTION('',(0.,0.,-1.));
#522=DIRECTION('',(-1.,0.,0.));
#523=DIRECTION('',(0.,0.,1.));
#524=DIRECTION('',(0.,1.,0.));
#525=DIRECTION('',(0.,0.,-1.));
#526=DIRECTION('',(0.,1.,0.));
#527=DIRECTION('',(0.,0.,1.));
#528=DIRECTION('',(1.,0.,0.));
#529=DIRECTION('',(0.,0.,1.));
#530=DIRECTION('',(1.,0.,0.));
#531=CARTESIAN_POINT('',(0.,0.,0.));
#532=CARTESIAN_POINT('',(0.,-0.337566,0.0127971723276059));
#533=CARTESIAN_POINT('',(0.,-0.285723320335162,0.0159944714469657));
#534=CARTESIAN_POINT('',(0.,-0.285723320335162,0.0210744714469656));
#535=CARTESIAN_POINT('',(0.,-0.285723320335162,0.0109144714469657));
#536=CARTESIAN_POINT('',(0.,-0.295883320335162,0.0210744714469656));
#537=CARTESIAN_POINT('',(0.,-0.306043320335162,0.0210744714469656));
#538=CARTESIAN_POINT('',(0.,-0.306043320335162,0.0159944714469657));
#539=CARTESIAN_POINT('',(0.,-0.306043320335162,0.0109144714469657));
#540=CARTESIAN_POINT('',(0.,-0.295883320335162,0.0109144714469657));
#541=CARTESIAN_POINT('',(0.,-0.0467306042971571,0.0109144714469657));
#542=CARTESIAN_POINT('',(0.,-0.0365706042971571,0.0109144714469657));
#543=CARTESIAN_POINT('',(0.,-0.0568906042971571,0.0109144714469657));
#544=CARTESIAN_POINT('',(0.,-0.0365706042971571,0.0159944714469657));
#545=CARTESIAN_POINT('',(0.,-0.0365706042971571,0.0210744714469656));
#546=CARTESIAN_POINT('',(0.,-0.0467306042971571,0.0210744714469656));
#547=CARTESIAN_POINT('',(0.,-0.0568906042971571,0.0210744714469656));
#548=CARTESIAN_POINT('',(0.,-0.0568906042971571,0.0159944714469657));
#549=CARTESIAN_POINT('',(0.,-0.337566,0.000762));
#550=CARTESIAN_POINT('',(0.,-0.336804,0.000762));
#551=CARTESIAN_POINT('',(0.,0.,0.000762));
#552=CARTESIAN_POINT('',(0.,-0.336804,0.0255943446552119));
#553=CARTESIAN_POINT('',(-2.08166817117217E-17,-0.336804,0.0255943446552119));
#554=CARTESIAN_POINT('',(-2.08166817117217E-17,-0.337566,0.0255943446552119));
#555=CARTESIAN_POINT('',(-2.08166817117217E-17,0.,0.0255943446552119));
#556=CARTESIAN_POINT('',(0.,0.,0.0127971723276059));
#557=CARTESIAN_POINT('',(0.0428789293977396,-0.337566,0.012797172327606));
#558=CARTESIAN_POINT('',(0.0428789293977396,-0.337566,0.000762));
#559=CARTESIAN_POINT('',(0.000762,-0.337566,0.000762));
#560=CARTESIAN_POINT('',(0.0779869740538065,-0.337566,0.000762));
#561=CARTESIAN_POINT('',(0.0779869740538065,-0.337566,0.001524));
#562=CARTESIAN_POINT('',(0.0782048939093125,-0.337566,0.00225417459321469));
#563=CARTESIAN_POINT('',(0.0428789293977396,-0.337566,0.012797172327606));
#564=CARTESIAN_POINT('',(0.000762,-0.337566,0.0253669265398205));
#565=CARTESIAN_POINT('',(0.000762,-0.337566,0.000762));
#566=CARTESIAN_POINT('',(0.0428789293977396,0.,0.012797172327606));
#567=CARTESIAN_POINT('',(0.0428789293977396,0.,0.012797172327606));
#568=CARTESIAN_POINT('',(0.0782048939093125,0.,0.00225417459321469));
#569=CARTESIAN_POINT('',(0.0779869740538065,0.,0.001524));
#570=CARTESIAN_POINT('',(0.0779869740538065,0.,0.000762));
#571=CARTESIAN_POINT('',(0.0428789293977396,0.,0.000762));
#572=CARTESIAN_POINT('',(0.0428789293977396,-0.337566,0.012797172327606));
#573=CARTESIAN_POINT('',(0.0782048939093125,-0.337566,0.00225417459321469));
#574=CARTESIAN_POINT('',(0.000762,-0.336804,0.0253669265398205));
#575=CARTESIAN_POINT('',(0.0428789293977396,-0.337566,0.000762));
#576=CARTESIAN_POINT('',(0.0428789293977396,-0.00477861696620013,0.000762));
#577=CARTESIAN_POINT('',(0.0734416524018998,-0.00477861696620013,0.000762));
#578=CARTESIAN_POINT('',(0.00378128637582539,-0.00477861696620013,0.000762));
#579=CARTESIAN_POINT('',(0.00378128637582539,-0.337566,0.000762));
#580=CARTESIAN_POINT('',(0.00378128637582539,-0.332217060140686,0.000762));
#581=CARTESIAN_POINT('',(0.0428789293977396,-0.332217060140686,0.000762));
#582=CARTESIAN_POINT('',(0.0734416524018998,-0.332217060140686,0.000762));
#583=CARTESIAN_POINT('',(0.0734416524018998,-0.337566,0.000762));
#584=CARTESIAN_POINT('',(0.0779869740538065,-0.337566,0.000762));
#585=CARTESIAN_POINT('',(0.000762,-0.336804,0.000762));
#586=CARTESIAN_POINT('',(0.0779869740538065,-0.337566,0.001524));
#587=CARTESIAN_POINT('',(0.000762,-0.336804,0.012797172327606));
#588=CARTESIAN_POINT('',(0.002032,-0.0365706042971571,0.0159944714469657));
#589=CARTESIAN_POINT('',(0.002032,-0.0365706042971571,0.0109144714469657));
#590=CARTESIAN_POINT('',(0.002032,-0.0365706042971571,0.0109144714469657));
#591=CARTESIAN_POINT('',(0.002032,-0.0365706042971571,0.0159944714469657));
#592=CARTESIAN_POINT('',(0.002032,-0.0365706042971571,0.0210744714469656));
#593=CARTESIAN_POINT('',(0.002032,-0.0365706042971571,0.0210744714469656));
#594=CARTESIAN_POINT('',(0.002032,-0.0467306042971571,0.0210744714469656));
#595=CARTESIAN_POINT('',(0.002032,-0.0467306042971571,0.0210744714469656));
#596=CARTESIAN_POINT('',(0.002032,-0.0568906042971571,0.0210744714469656));
#597=CARTESIAN_POINT('',(0.002032,-0.0568906042971571,0.0210744714469656));
#598=CARTESIAN_POINT('',(0.002032,-0.0568906042971571,0.0159944714469657));
#599=CARTESIAN_POINT('',(0.002032,-0.0568906042971571,0.0159944714469657));
#600=CARTESIAN_POINT('',(0.002032,-0.0568906042971571,0.0109144714469657));
#601=CARTESIAN_POINT('',(0.002032,-0.0568906042971571,0.0109144714469657));
#602=CARTESIAN_POINT('',(0.002032,-0.0467306042971571,0.0109144714469657));
#603=CARTESIAN_POINT('',(0.002032,-0.0467306042971571,0.0109144714469657));
#604=CARTESIAN_POINT('',(0.002032,-0.171306962316159,0.0159944714469657));
#605=CARTESIAN_POINT('',(0.002032,-0.295883320335162,0.0210744714469656));
#606=CARTESIAN_POINT('',(0.002032,-0.285723320335162,0.0210744714469656));
#607=CARTESIAN_POINT('',(0.002032,-0.285723320335162,0.0210744714469656));
#608=CARTESIAN_POINT('',(0.002032,-0.295883320335162,0.0210744714469656));
#609=CARTESIAN_POINT('',(0.002032,-0.306043320335162,0.0210744714469656));
#610=CARTESIAN_POINT('',(0.002032,-0.306043320335162,0.0210744714469656));
#611=CARTESIAN_POINT('',(0.002032,-0.306043320335162,0.0159944714469657));
#612=CARTESIAN_POINT('',(0.002032,-0.306043320335162,0.0159944714469657));
#613=CARTESIAN_POINT('',(0.002032,-0.306043320335162,0.0109144714469657));
#614=CARTESIAN_POINT('',(0.002032,-0.306043320335162,0.0109144714469657));
#615=CARTESIAN_POINT('',(0.002032,-0.295883320335162,0.0109144714469657));
#616=CARTESIAN_POINT('',(0.002032,-0.295883320335162,0.0109144714469657));
#617=CARTESIAN_POINT('',(0.002032,-0.285723320335162,0.0109144714469657));
#618=CARTESIAN_POINT('',(0.002032,-0.285723320335162,0.0109144714469657));
#619=CARTESIAN_POINT('',(0.002032,-0.285723320335162,0.0159944714469657));
#620=CARTESIAN_POINT('',(0.002032,-0.285723320335162,0.0159944714469657));
#621=CARTESIAN_POINT('',(0.002032,-0.171306962316159,0.0159944714469657));
#622=CARTESIAN_POINT('',(0.00378128637582539,-0.168497838553443,0.00254));
#623=CARTESIAN_POINT('',(0.00378128637582539,-0.00477861696620014,0.00254));
#624=CARTESIAN_POINT('',(0.00378128637582539,-0.00477861696620014,0.00254));
#625=CARTESIAN_POINT('',(0.00378128637582539,-0.168497838553443,0.00254));
#626=CARTESIAN_POINT('',(0.00378128637582539,-0.332217060140686,0.00254));
#627=CARTESIAN_POINT('',(0.00378128637582539,-0.332217060140686,0.00254));
#628=CARTESIAN_POINT('',(0.0386114693888626,-0.332217060140686,0.00254));
#629=CARTESIAN_POINT('',(0.0386114693888626,-0.332217060140686,0.00254));
#630=CARTESIAN_POINT('',(0.0734416524018998,-0.332217060140686,0.00254));
#631=CARTESIAN_POINT('',(0.0734416524018998,-0.332217060140686,0.00254));
#632=CARTESIAN_POINT('',(0.0734416524018998,-0.168497838553443,0.00254));
#633=CARTESIAN_POINT('',(0.0734416524018998,-0.168497838553443,0.00254));
#634=CARTESIAN_POINT('',(0.0734416524018998,-0.00477861696620013,0.00254));
#635=CARTESIAN_POINT('',(0.0734416524018998,-0.00477861696620013,0.00254));
#636=CARTESIAN_POINT('',(0.0386114693888626,-0.00477861696620014,0.00254));
#637=CARTESIAN_POINT('',(0.0386114693888626,-0.00477861696620014,0.00254));
#638=CARTESIAN_POINT('',(0.0386114693888626,-0.168497838553443,0.00254));
#639=MECHANICAL_DESIGN_GEOMETRIC_PRESENTATION_REPRESENTATION('',(#392),
#640);
#640=(
GEOMETRIC_REPRESENTATION_CONTEXT(3)
GLOBAL_UNCERTAINTY_ASSIGNED_CONTEXT((#641))
GLOBAL_UNIT_ASSIGNED_CONTEXT((#644,#643,#642))
REPRESENTATION_CONTEXT('Part 1','TOP_LEVEL_ASSEMBLY_PART')
);
#641=UNCERTAINTY_MEASURE_WITH_UNIT(LENGTH_MEASURE(1.E-8),#644,
'DISTANCE_ACCURACY_VALUE','Maximum Tolerance applied to model');
#642=(
NAMED_UNIT(*)
SI_UNIT($,.STERADIAN.)
SOLID_ANGLE_UNIT()
);
#643=(
NAMED_UNIT(*)
PLANE_ANGLE_UNIT()
SI_UNIT($,.RADIAN.)
);
#644=(
LENGTH_UNIT()
NAMED_UNIT(*)
SI_UNIT($,.METRE.)
);
#645=PRODUCT_DEFINITION_SHAPE('','',#646);
#646=PRODUCT_DEFINITION('','',#648,#647);
#647=PRODUCT_DEFINITION_CONTEXT('',#654,'design');
#648=PRODUCT_DEFINITION_FORMATION_WITH_SPECIFIED_SOURCE('','',#650,
 .NOT_KNOWN.);
#649=PRODUCT_RELATED_PRODUCT_CATEGORY('','',(#650));
#650=PRODUCT('Part 1','Part 1','Part 1',(#652));
#651=PRODUCT_CATEGORY('','');
#652=PRODUCT_CONTEXT('',#654,'mechanical');
#653=APPLICATION_PROTOCOL_DEFINITION('international standard',
'ap242_managed_model_based_3d_engineering',2020,#654);
#654=APPLICATION_CONTEXT('managed model based 3d engineering');
ENDSEC;
END-ISO-10303-21;
